<svg width="80" height="85" viewBox="0 0 80 85" fill="none" xmlns="http://www.w3.org/2000/svg">
<path d="M35.8153 29.197L47.9807 17.0316V12.1654L35.8153 0L23.6499 12.1654V15.8639L9.14856 1.36253L0 10.5111V62.871L21.8977 84.3794L30.8515 75.4257L30.6566 24.2337L35.8153 29.197ZM47.4939 17.0316L36.3014 28.2241V24.3315L47.4932 13.1397L47.4939 17.0316ZM35.8153 0.778586L47.2991 12.2624L35.8153 23.6497L24.3308 12.1652L35.8153 0.778586ZM21.022 83.0167L0.876083 62.8708V12.0681L21.022 32.214V83.0167ZM21.5087 31.1434L1.07087 10.7056L9.1487 2.62773L29.5866 23.0656L21.5087 31.1434ZM80 6.42333L77.2749 3.8931L46.1315 35.0365V45.1578L33.8684 57.4209V65.2069L53.3331 84.6716L72.7977 65.2069V57.4209L60.6323 45.2555L79.9996 25.8882L80 6.42333ZM77.178 4.96308L78.8324 6.61749L48.8568 36.593L47.2024 34.9386L77.178 4.96308ZM52.5552 83.1136L34.6477 65.2062V58.9775L52.5552 76.885V83.1136ZM71.6305 57.4203L53.3338 75.7171L35.037 57.4203L46.1319 46.3255V54.5004L48.8569 57.0307L60.0487 45.8388L71.6305 57.4203ZM49.6355 42.7242L53.334 39.0257L59.6596 45.3514L49.6353 55.3763L49.6355 42.7242ZM79.2218 25.8874L60.2437 44.8654L53.3334 37.9551L49.635 41.6536V37.566L79.2212 7.97976L79.2218 25.8874Z" fill="black"/>
</svg>
