<svg width="80" height="70" viewBox="0 0 80 70" fill="none" xmlns="http://www.w3.org/2000/svg">
<path fill-rule="evenodd" clip-rule="evenodd" d="M68.4348 24.3351V56.2649L71.2783 55.5141C71.3672 55.4557 71.4418 55.4557 71.5005 55.5141L79.4091 56.5756C79.7947 56.634 79.9867 56.8264 79.9867 57.1482C80.0454 57.5015 79.8978 57.7223 79.5424 57.8107L40.2215 70.0018H39.8216L0.456355 57.8107C0.100913 57.7223 -0.0482464 57.5015 0.0120519 57.1482C0.0120519 56.8264 0.204054 56.634 0.589646 56.5756L8.45382 55.5141C8.51253 55.4557 8.58711 55.4557 8.67597 55.5141L10.8531 56.0441V18.2388C10.8531 17.8555 11.0308 17.6347 11.3862 17.5763L15.3849 16.7813V15.0147C15.3849 14.7198 15.5484 14.5147 15.8737 14.398L23.027 11.9689H23.338L30.8467 13.1157C31.2323 13.174 31.4243 13.3822 31.4243 13.7355V14.7939L31.8686 14.8397V4.32839C31.8686 3.97507 32.0305 3.75424 32.3573 3.66591L34.179 3.22426V2.0744C34.179 1.72107 34.3266 1.50025 34.6233 1.41192L39.5551 0.0443811C39.7026 -0.0139799 39.8216 -0.0139799 39.9105 0.0443811L45.331 1.4135C45.6864 1.50183 45.8642 1.72265 45.8642 2.07597V3.26843L47.6414 3.66749C47.9968 3.75582 48.1745 3.97665 48.1745 4.32997V19.3461C48.2634 19.2577 48.3665 19.2136 48.4855 19.2136L55.9943 18.1095H56.3053L63.4586 20.4928C63.7537 20.5827 63.9029 20.7878 63.9029 21.1127V22.8793L67.946 23.7168C68.2713 23.7752 68.4364 23.9818 68.4364 24.3367L68.4348 24.3351ZM63.1031 24.0686C62.808 24.0102 62.6446 23.8178 62.6144 23.4944L56.0831 22.1253H56.0387L52.1733 21.3729V60.6798L67.1463 57.0583V24.9061L63.1031 24.0686ZM62.6144 21.5953L56.3497 19.5637V21.7263L62.6144 23.0969V21.5938V21.5953ZM44.5313 2.56021L39.9549 1.36775V2.25106L44.5313 3.39777V2.55863V2.56021ZM35.4675 3.31102L39.5106 2.16115V1.41034L35.4675 2.56021V3.31102ZM35.4675 3.70692C35.4389 4.03027 35.2755 4.23848 34.9787 4.32681L33.1571 4.81105V15.4548L36.7559 15.8523C36.9035 15.8523 36.9781 15.9264 36.9781 16.0731V31.4883H39.4218V2.64696L35.4675 3.70535V3.70692ZM27.3811 14.7939L30.0914 15.1472V14.3081L23.4713 13.3365V15.5447L27.2923 14.7939L27.3367 14.7482H27.3811V14.7939ZM27.6033 15.2356V60.5931L29.7359 61.123V33.6524C29.7359 33.5057 29.8089 33.4316 29.9581 33.4316H31.5132V31.7107C31.5132 31.564 31.5862 31.4899 31.7353 31.4899H36.5338V16.2529L33.1127 15.8539C33.0841 15.9138 33.0238 15.9864 32.9349 16.0747C32.6969 16.1946 32.5208 16.2372 32.4018 16.2072L30.669 16.0321C30.3135 16.0321 30.12 15.8697 30.0914 15.5447L27.6049 15.2356H27.6033ZM23.027 13.3806L16.6734 15.5006V17.0022L23.027 15.6315V13.3806ZM45.02 4.3694C44.7248 4.28107 44.5614 4.09021 44.5313 3.79683L39.8661 2.64696V31.4867H42.3542V22.1679C42.3542 22.0496 42.4272 21.9928 42.5747 21.9928L46.84 21.5054V4.81263L45.0184 4.3694H45.02ZM46.8861 21.9045L42.7985 22.3887V31.4883H48.3523C48.4998 31.4883 48.5744 31.5624 48.5744 31.7091V33.43H49.9962C50.1438 33.43 50.2183 33.5041 50.2183 33.6508V61.1215L51.729 60.8123V21.3288L49.2425 21.6379C49.2139 21.9045 49.0203 22.0654 48.6649 22.1253L47.5541 22.2562C47.3764 22.3162 47.2145 22.272 47.0654 22.1253C46.9765 22.0654 46.9162 21.9912 46.8876 21.9045H46.8861ZM49.2409 21.1979L51.9067 20.8887C51.9067 20.8303 51.9352 20.8303 51.9955 20.8887L55.9054 21.6395V19.477L49.2409 20.3603V21.1979ZM48.1301 31.93H31.9575V33.4316H48.1301V31.93ZM30.1803 33.8732V61.2555L39.8216 63.5963V33.8732H30.1803ZM39.9549 64.0837L12.0527 57.2823C12.0241 57.3106 11.9797 57.3406 11.9194 57.3706C11.7417 57.5189 11.5481 57.5614 11.3418 57.5031L8.49825 56.8406L3.69977 57.4148L40.0438 68.6768L76.3434 57.4148L71.456 56.8406L67.946 57.7239C67.7398 57.7823 67.5462 57.7397 67.3684 57.5914C67.3097 57.563 67.2637 57.5189 67.2352 57.4605L40.0882 64.0853H39.9549V64.0837ZM40.2659 63.5963L49.774 61.2555V33.8732H40.2659V63.5963ZM27.159 15.2797L16.6734 17.3981C16.6449 17.693 16.4671 17.8713 16.1403 17.9296L12.186 18.7672V56.8816L27.159 60.459V15.2797Z" fill="black"/>
</svg>
