<svg width="71" height="85" viewBox="0 0 71 85" fill="none" xmlns="http://www.w3.org/2000/svg">
<g clip-path="url(#clip0_319_6)">
<path d="M44.7322 61.6873V19.0776L39.1624 24.6734V13.5601L34.2384 18.5059V9.12817L8.63593 34.8482V61.6854H0V84.6699H60.4885V61.6854H44.7322V61.6873ZM6.82992 83.5862H4.55389V72.1172H6.82807V83.5862H6.82992ZM10.2032 83.5862H7.90871V72.1172H10.2032V83.5862ZM13.5599 83.5862H11.2839V72.1172H13.5599V83.5862ZM13.5599 39.2801V71.0297H3.4751V83.5862H1.0788V62.7729H9.71473V35.2988L33.1578 11.7501V19.5897L13.5581 39.2819L13.5599 39.2801ZM19.1278 44.7976V83.5843H14.6387V39.7289L34.2384 20.0459V20.0385L38.0817 16.1783V25.7553L19.1278 44.7995V44.7976ZM35.7946 83.5843H20.2066V45.2464L39.1624 26.2152V26.2059L43.6534 21.6958V61.6836H35.7965V65.771H24.829V79.4131H35.7946V83.5843ZM35.7946 78.3275H25.9078V66.8585H48.4441V78.3275H35.7946ZM59.4097 83.5843H36.8734V79.4131H49.5229V65.771H36.8734V62.7711H59.4097V83.5843Z" fill="black"/>
<path d="M42.3565 57.6912H35.7949V60.6669H42.3565V57.6912ZM41.2777 59.5812H36.8737V58.7768H41.2777V59.5812Z" fill="black"/>
<path d="M42.3565 52.9446H35.7949V55.9203H42.3565V52.9446ZM41.2777 54.8347H36.8737V54.0302H41.2777V54.8347Z" fill="black"/>
<path d="M42.3565 48.196H35.7949V51.1718H42.3565V48.196ZM41.2777 50.0861H36.8737V49.2817H41.2777V50.0861Z" fill="black"/>
<path d="M42.3565 43.4495H35.7949V46.4252H42.3565V43.4495ZM41.2777 45.3395H36.8737V44.5351H41.2777V45.3395Z" fill="black"/>
<path d="M42.3565 38.7029H35.7949V41.6786H42.3565V38.7029ZM41.2777 40.593H36.8737V39.7885H41.2777V40.593Z" fill="black"/>
<path d="M42.3565 33.9563H35.7949V36.932H42.3565V33.9563ZM41.2777 35.8464H36.8737V35.0438H41.2777V35.8464Z" fill="black"/>
<path d="M51.2236 64.7617H57.8815V65.8473H51.2236V64.7617Z" fill="black"/>
<path d="M51.2236 66.73H57.8815V67.8156H51.2236V66.73Z" fill="black"/>
<path d="M51.2236 68.7002H57.8815V69.7858H51.2236V68.7002Z" fill="black"/>
<path d="M51.2236 70.6685H57.8815V71.7541H51.2236V70.6685Z" fill="black"/>
<path d="M51.2236 72.6367H57.8815V73.7223H51.2236V72.6367Z" fill="black"/>
<path d="M51.2236 74.6069H57.8815V75.6926H51.2236V74.6069Z" fill="black"/>
<path d="M51.2236 76.5752H57.8815V77.6608H51.2236V76.5752Z" fill="black"/>
<path d="M51.2236 78.5435H57.8815V79.6291H51.2236V78.5435Z" fill="black"/>
<path d="M51.2236 80.5117H57.8815V81.5974H51.2236V80.5117Z" fill="black"/>
<path d="M8.84982 52.706L0.0380859 61.7739L0.831875 62.5551L9.64361 53.4872L8.84982 52.706Z" fill="black"/>
<path d="M44.4472 62.5569L43.6533 61.7748L52.3041 52.87V12.9027L44.4472 20.99L43.6533 20.2098L53.4143 10.1616V53.3243L44.4472 62.5569Z" fill="black"/>
<path d="M48.0021 16.8394H46.8918V7.1488L39.0331 15.2361L38.2393 14.4559L48.0021 4.40771V16.8394Z" fill="black"/>
<path d="M34.1054 10.8284L33.3115 10.0482L43.0744 0V10.6571H41.9641V2.74108L34.1054 10.8284Z" fill="black"/>
<path d="M60.3223 84.5638V61.7991L69.356 52.6243H69.8205L69.9907 52.7956C70.2239 53.0339 70.3516 53.1643 70.2665 63.9014C70.2257 69.0968 70.1443 74.3183 70.1425 74.3704L70.1388 74.5957L60.3223 84.5676V84.5638ZM61.4325 62.259V81.8488L69.0359 74.1265C69.1414 67.3483 69.2358 57.6781 69.1432 54.4287L61.4344 62.259H61.4325Z" fill="black"/>
<path d="M69.5835 52.4492H52.8594V53.5665H69.5835V52.4492Z" fill="black"/>
</g>
<defs>
<clipPath id="clip0_319_6">
<rect width="70.2921" height="84.67" fill="white"/>
</clipPath>
</defs>
</svg>
