<svg width="119" height="119" viewBox="0 0 119 119" fill="none" xmlns="http://www.w3.org/2000/svg">
<rect width="119" height="119" fill="white"/>
<path d="M18.0145 30.0694C16.6544 30.0694 15.4303 29.8362 14.3422 29.3699C13.2541 28.8841 12.3992 28.2041 11.7774 27.3297C11.1556 26.4553 10.8447 25.4352 10.8447 24.2694H14.4005C14.4782 25.1438 14.8182 25.8627 15.4206 26.4262C16.0424 26.9897 16.907 27.2714 18.0145 27.2714C19.1609 27.2714 20.0547 26.9994 20.6959 26.4553C21.3371 25.8919 21.6577 25.1729 21.6577 24.2986C21.6577 23.6185 21.4537 23.0647 21.0457 22.6373C20.6571 22.2098 20.1616 21.8795 19.5592 21.6463C18.9763 21.4132 18.1603 21.1606 17.111 20.8885C15.7898 20.5388 14.7114 20.189 13.8759 19.8393C13.0598 19.4701 12.3603 18.9066 11.7774 18.1489C11.1945 17.3911 10.903 16.3807 10.903 15.1177C10.903 13.9519 11.1945 12.9318 11.7774 12.0575C12.3603 11.1831 13.1764 10.5127 14.2256 10.0464C15.2749 9.58009 16.4892 9.34692 17.8688 9.34692C19.8313 9.34692 21.4343 9.84239 22.6778 10.8333C23.9408 11.8049 24.6403 13.1456 24.7763 14.8554H21.104C21.0457 14.1171 20.6959 13.4856 20.0547 12.961C19.4135 12.4363 18.5683 12.174 17.5191 12.174C16.567 12.174 15.7898 12.4169 15.1874 12.9027C14.5851 13.3884 14.2839 14.0879 14.2839 15.0011C14.2839 15.6229 14.4685 16.1378 14.8377 16.5459C15.2263 16.9345 15.712 17.2454 16.2949 17.4785C16.8779 17.7117 17.6745 17.9643 18.6849 18.2363C20.0256 18.6055 21.1137 18.9747 21.9492 19.3438C22.8041 19.713 23.523 20.2862 24.1059 21.0634C24.7083 21.8212 25.0095 22.8413 25.0095 24.1237C25.0095 25.1535 24.7277 26.125 24.1642 27.0382C23.6202 27.9515 22.8138 28.6898 21.7452 29.2533C20.6959 29.7974 19.4524 30.0694 18.0145 30.0694ZM42.0163 9.60923V12.3198H36.6244V29.8654H33.3018V12.3198H27.8807V9.60923H42.0163ZM55.9028 29.8654L51.2395 21.7629H48.7038V29.8654H45.3812V9.60923H52.3762C53.9306 9.60923 55.2421 9.88126 56.3108 10.4253C57.3989 10.9694 58.2053 11.698 58.7299 12.6112C59.2739 13.5244 59.546 14.5445 59.546 15.6715C59.546 16.9928 59.1574 18.1974 58.3801 19.2855C57.6224 20.3542 56.4468 21.0828 54.8535 21.4715L59.8666 29.8654H55.9028ZM48.7038 19.1107H52.3762C53.6197 19.1107 54.5524 18.7998 55.1741 18.178C55.8153 17.5562 56.1359 16.7207 56.1359 15.6715C56.1359 14.6223 55.8251 13.8062 55.2033 13.2233C54.5815 12.6209 53.6391 12.3198 52.3762 12.3198H48.7038V19.1107ZM20.5793 55.0694C18.6946 55.0694 16.9556 54.6322 15.3623 53.7578C13.7884 52.864 12.5352 51.6302 11.6025 50.0563C10.6893 48.4631 10.2327 46.6755 10.2327 44.6936C10.2327 42.7117 10.6893 40.9338 11.6025 39.3599C12.5352 37.7861 13.7884 36.562 15.3623 35.6876C16.9556 34.7938 18.6946 34.3469 20.5793 34.3469C22.4835 34.3469 24.2225 34.7938 25.7964 35.6876C27.3897 36.562 28.6429 37.7861 29.5561 39.3599C30.4694 40.9338 30.926 42.7117 30.926 44.6936C30.926 46.6755 30.4694 48.4631 29.5561 50.0563C28.6429 51.6302 27.3897 52.864 25.7964 53.7578C24.2225 54.6322 22.4835 55.0694 20.5793 55.0694ZM20.5793 52.184C21.92 52.184 23.115 51.8828 24.1642 51.2805C25.2135 50.6587 26.0295 49.7843 26.6125 48.6574C27.2148 47.511 27.516 46.1897 27.516 44.6936C27.516 43.1974 27.2148 41.8859 26.6125 40.7589C26.0295 39.632 25.2135 38.7673 24.1642 38.165C23.115 37.5626 21.92 37.2615 20.5793 37.2615C19.2386 37.2615 18.0437 37.5626 16.9944 38.165C15.9452 38.7673 15.1194 39.632 14.5171 40.7589C13.9342 41.8859 13.6427 43.1974 13.6427 44.6936C13.6427 46.1897 13.9342 47.511 14.5171 48.6574C15.1194 49.7843 15.9452 50.6587 16.9944 51.2805C18.0437 51.8828 19.2386 52.184 20.5793 52.184ZM49.2055 34.6092L42.502 47.5207V54.8654H39.1794V47.5207L32.4468 34.6092H36.1483L40.8407 44.5478L45.5331 34.6092H49.2055ZM32.6747 59.6092V79.8654H29.3521V65.9921L23.1733 79.8654H20.8708L14.6628 65.9921V79.8654H11.3402V59.6092H14.9251L22.0366 75.4935L29.119 59.6092H32.6747ZM49.2537 75.7267H40.7724L39.3151 79.8654H35.8468L43.104 59.5801H46.9512L54.2085 79.8654H50.711L49.2537 75.7267ZM48.3211 73.0162L45.0276 63.6022L41.705 73.0162H48.3211ZM67.8854 79.8654L63.2222 71.7629H60.6865V79.8654H57.3639V59.6092H64.3588C65.9133 59.6092 67.2248 59.8813 68.2935 60.4253C69.3816 60.9694 70.1879 61.698 70.7126 62.6112C71.2566 63.5244 71.5286 64.5445 71.5286 65.6715C71.5286 66.9928 71.14 68.1974 70.3628 69.2855C69.605 70.3542 68.4295 71.0828 66.8362 71.4715L71.8492 79.8654H67.8854ZM60.6865 69.1107H64.3588C65.6024 69.1107 66.535 68.7998 67.1568 68.178C67.798 67.5562 68.1186 66.7207 68.1186 65.6715C68.1186 64.6223 67.8077 63.8062 67.186 63.2233C66.5642 62.6209 65.6218 62.3198 64.3588 62.3198H60.6865V69.1107ZM22.5029 104.865L14.6628 95.8011V104.865H11.3402V84.6092H14.6628V93.8484L22.5321 84.6092H26.6999L17.8979 94.7519L26.8456 104.865H22.5029ZM33.1064 87.2906V93.2363H40.1014V95.9468H33.1064V102.155H40.9757V104.865H29.7838V84.5801H40.9757V87.2906H33.1064ZM58.1545 84.6092V87.3198H52.7626V104.865H49.44V87.3198H44.0189V84.6092H58.1545Z" fill="black"/>
</svg>
