<svg width="71" height="71" viewBox="0 0 71 71" fill="none" xmlns="http://www.w3.org/2000/svg">
<path d="M70.5281 0H0.470516C0.21131 0 0 0.21131 0 0.470516V70.5281C0 70.7887 0.21131 70.9986 0.470516 70.9986H70.5281C70.7887 70.9986 70.9986 70.7873 70.9986 70.5281V0.470516C71 0.21131 70.7887 0 70.5281 0ZM53.1443 17.1893H19.4884L69.3574 0.974841L53.1443 17.1893ZM40.4756 52.8696H30.5244V35.9719H40.4742V52.8696H40.4756ZM29.5833 35.0295V52.8696H18.1318V18.1318H52.8696V52.8696H41.4181V35.0295H29.5833ZM17.1893 53.1458L1.30589 69.0292L17.1893 20.1758V53.1458ZM17.8557 53.8121H50.9157L1.64821 70.0195L17.8557 53.8121ZM53.8107 17.8571L70.0139 1.65385L53.8107 50.6368V17.8571ZM18.7277 17.1907H17.7106L1.46508 0.943849H68.6995L18.7277 17.1907ZM17.1893 18.0008V19.4151L0.94244 69.3856V1.75387L17.1893 18.0008ZM51.668 53.8121H53.0007L69.2475 70.059H2.27933L51.668 53.8121ZM53.8107 53.2909V51.3862L70.0576 2.27087V69.5377L53.8107 53.2909Z" fill="black"/>
</svg>
